<svg width="14" height="18" viewBox="0 0 14 18" fill="none" xmlns="http://www.w3.org/2000/svg">
<path d="M12.625 4.7249H9.24999C9.19032 4.7249 9.13309 4.7012 9.09089 4.659C9.0487 4.61681 9.02499 4.55958 9.02499 4.4999V1.1249C9.02499 1.06523 9.0487 1.008 9.09089 0.965803C9.13309 0.923608 9.19032 0.899902 9.24999 0.899902C9.30967 0.899902 9.3669 0.923608 9.40909 0.965803C9.45129 1.008 9.47499 1.06523 9.47499 1.1249V4.2749H12.625C12.6847 4.2749 12.7419 4.29861 12.7841 4.3408C12.8263 4.383 12.85 4.44023 12.85 4.4999C12.85 4.55958 12.8263 4.61681 12.7841 4.659C12.7419 4.7012 12.6847 4.7249 12.625 4.7249Z" fill="#101010"/>
<path d="M12.625 6.96725C12.5653 6.96725 12.5081 6.94355 12.4659 6.90135C12.4237 6.85916 12.4 6.80193 12.4 6.74225V4.59305L9.15684 1.3499H2.49999C2.2613 1.3499 2.03238 1.44472 1.8636 1.61351C1.69482 1.78229 1.59999 2.01121 1.59999 2.2499V6.66755C1.59999 6.72723 1.57629 6.78446 1.53409 6.82665C1.4919 6.86885 1.43467 6.89255 1.37499 6.89255C1.31532 6.89255 1.25809 6.86885 1.21589 6.82665C1.1737 6.78446 1.14999 6.72723 1.14999 6.66755V2.2499C1.14999 1.89186 1.29223 1.54848 1.5454 1.29531C1.79857 1.04213 2.14195 0.899903 2.49999 0.899903H9.24999C9.27956 0.89985 9.30885 0.905625 9.33618 0.916898C9.36352 0.928172 9.38836 0.944722 9.40929 0.965603L12.7843 4.3406C12.8052 4.36154 12.8217 4.38638 12.833 4.41371C12.8443 4.44105 12.85 4.47034 12.85 4.4999V6.74225C12.85 6.7718 12.8442 6.80106 12.8329 6.82836C12.8216 6.85566 12.805 6.88046 12.7841 6.90135C12.7632 6.92225 12.7384 6.93882 12.7111 6.95013C12.6838 6.96143 12.6545 6.96725 12.625 6.96725Z" fill="#101010"/>
<path d="M11.5 17.0999H2.49999C2.14195 17.0999 1.79857 16.9577 1.5454 16.7045C1.29223 16.4513 1.14999 16.1079 1.14999 15.7499V12.3749C1.14999 12.3152 1.1737 12.258 1.21589 12.2158C1.25809 12.1736 1.31532 12.1499 1.37499 12.1499C1.43467 12.1499 1.4919 12.1736 1.53409 12.2158C1.57629 12.258 1.59999 12.3152 1.59999 12.3749V15.7499C1.59999 15.9886 1.69482 16.2175 1.8636 16.3863C2.03238 16.5551 2.2613 16.6499 2.49999 16.6499H11.5C11.7387 16.6499 11.9676 16.5551 12.1364 16.3863C12.3052 16.2175 12.4 15.9886 12.4 15.7499V12.3749C12.4 12.3152 12.4237 12.258 12.4659 12.2158C12.5081 12.1736 12.5653 12.1499 12.625 12.1499C12.6847 12.1499 12.7419 12.1736 12.7841 12.2158C12.8263 12.258 12.85 12.3152 12.85 12.3749V15.7499C12.85 16.1079 12.7078 16.4513 12.4546 16.7045C12.2014 16.9577 11.858 17.0999 11.5 17.0999Z" fill="#101010"/>
<path d="M10.375 12.5999H3.62499C3.56532 12.5999 3.50809 12.5762 3.46589 12.534C3.4237 12.4918 3.39999 12.4346 3.39999 12.3749C3.39999 12.3152 3.4237 12.258 3.46589 12.2158C3.50809 12.1736 3.56532 12.1499 3.62499 12.1499H10.375C10.4347 12.1499 10.4919 12.1736 10.5341 12.2158C10.5763 12.258 10.6 12.3152 10.6 12.3749C10.6 12.4346 10.5763 12.4918 10.5341 12.534C10.4919 12.5762 10.4347 12.5999 10.375 12.5999Z" fill="#101010"/>
<path d="M6.99999 14.8499H3.62499C3.56532 14.8499 3.50809 14.8262 3.46589 14.784C3.4237 14.7418 3.39999 14.6846 3.39999 14.6249C3.39999 14.5652 3.4237 14.508 3.46589 14.4658C3.50809 14.4236 3.56532 14.3999 3.62499 14.3999H6.99999C7.05967 14.3999 7.1169 14.4236 7.15909 14.4658C7.20129 14.508 7.22499 14.5652 7.22499 14.6249C7.22499 14.6846 7.20129 14.7418 7.15909 14.784C7.1169 14.8262 7.05967 14.8499 6.99999 14.8499Z" fill="#101010"/>
<path d="M12.625 12.6H1.37499C1.01695 12.6 0.673574 12.4577 0.4204 12.2046C0.167226 11.9514 0.0249939 11.608 0.0249939 11.25V7.79263C0.0249939 7.43458 0.167226 7.09121 0.4204 6.83803C0.673574 6.58486 1.01695 6.44263 1.37499 6.44263H1.38399L12.634 6.51733C12.9902 6.52064 13.3308 6.66421 13.5819 6.91691C13.833 7.16961 13.9744 7.51109 13.9754 7.86733V11.25C13.9754 11.4273 13.9405 11.6029 13.8726 11.7667C13.8048 11.9305 13.7053 12.0794 13.5799 12.2047C13.4545 12.3301 13.3056 12.4295 13.1418 12.4973C12.9779 12.5652 12.8023 12.6 12.625 12.6ZM1.37499 6.89263C1.1363 6.89263 0.907381 6.98745 0.738598 7.15623C0.569815 7.32501 0.474994 7.55393 0.474994 7.79263V11.25C0.474994 11.4887 0.569815 11.7176 0.738598 11.8864C0.907381 12.0552 1.1363 12.15 1.37499 12.15H12.625C12.8637 12.15 13.0926 12.0552 13.2614 11.8864C13.4302 11.7176 13.525 11.4887 13.525 11.25V7.86733C13.5243 7.62978 13.43 7.40208 13.2625 7.23361C13.0951 7.06513 12.8679 6.96946 12.6304 6.96733L1.38039 6.89263H1.37499Z" fill="#101010"/>
<path d="M5.5816 9.7866L5.98255 9.8316C5.96403 10.0564 5.86514 10.2669 5.704 10.4247C5.5441 10.5801 5.3341 10.6578 5.074 10.6578C4.8547 10.6578 4.6768 10.6028 4.5403 10.4927C4.39738 10.3731 4.28869 10.2178 4.2253 10.0427C4.14955 9.84339 4.112 9.63166 4.1146 9.4185C4.1146 9.0528 4.2013 8.7555 4.3747 8.5266C4.5481 8.2977 4.7866 8.1831 5.0902 8.1828C5.30925 8.17581 5.52237 8.25461 5.6842 8.4024C5.8423 8.5488 5.9419 8.7588 5.983 9.0324L5.58205 9.0747C5.50825 8.7126 5.34535 8.53155 5.09335 8.53155C4.93165 8.53155 4.80595 8.60655 4.71625 8.75655C4.62655 8.90655 4.58155 9.1248 4.58125 9.4113C4.58125 9.702 4.62925 9.92145 4.72525 10.0697C4.82125 10.2179 4.94845 10.292 5.10685 10.292C5.16845 10.2924 5.22939 10.2792 5.28532 10.2534C5.34125 10.2276 5.39079 10.1897 5.4304 10.1426C5.51894 10.044 5.57214 9.91875 5.5816 9.7866Z" fill="#101010"/>
<path d="M6.07344 10.0417L6.49374 9.95172C6.54414 10.1896 6.73749 10.3086 7.07379 10.3086C7.22739 10.3086 7.34544 10.2786 7.42794 10.2186C7.46543 10.1941 7.49632 10.1607 7.5179 10.1215C7.53948 10.0823 7.55109 10.0383 7.55169 9.99357C7.55151 9.92927 7.5319 9.86653 7.49544 9.81357C7.45794 9.75807 7.37769 9.71442 7.25469 9.68262L6.79569 9.56292C6.67275 9.53597 6.55518 9.48867 6.44784 9.42297C6.36942 9.36665 6.30732 9.29057 6.26784 9.20247C6.22275 9.10743 6.19968 9.00345 6.20034 8.89827C6.19698 8.7996 6.21685 8.70152 6.25835 8.61194C6.29986 8.52236 6.36184 8.44379 6.43929 8.38257C6.59859 8.25297 6.80244 8.18817 7.05084 8.18817C7.24375 8.18472 7.43427 8.23123 7.60389 8.32317C7.6794 8.36199 7.74598 8.41614 7.79937 8.48215C7.85275 8.54817 7.89178 8.62461 7.91394 8.70657L7.50264 8.80872C7.43934 8.62722 7.29174 8.53647 7.05984 8.53647C6.92514 8.53647 6.82224 8.56467 6.75114 8.62107C6.71767 8.64585 6.69059 8.67824 6.67212 8.71557C6.65365 8.75289 6.64434 8.79408 6.64494 8.83572C6.64494 8.97282 6.75624 9.06897 6.97884 9.12417L7.38654 9.22632C7.63374 9.28842 7.79949 9.38007 7.88379 9.50127C7.96692 9.6187 8.01114 9.75924 8.01024 9.90312C8.01435 10.0105 7.99224 10.1172 7.94582 10.2142C7.89941 10.3111 7.83008 10.3952 7.74384 10.4593C7.56624 10.5946 7.33629 10.6623 7.05399 10.6623C6.83623 10.6673 6.62087 10.6159 6.42894 10.5129C6.34027 10.4633 6.26288 10.3958 6.20168 10.3147C6.14048 10.2335 6.09681 10.1406 6.07344 10.0417Z" fill="#101010"/>
<path d="M9.26394 10.6199H8.82429L8.08449 8.22046H8.54169L9.09204 10.0592L9.65499 8.22046H10.015L9.26394 10.6199Z" fill="#101010"/>
</svg>
