<svg width="24" height="24" viewBox="0 0 24 24" fill="none" xmlns="http://www.w3.org/2000/svg">
<path d="M1 2.95556C1 2.27105 1 1.92879 1.13321 1.66735C1.2504 1.43737 1.43737 1.2504 1.66735 1.13321C1.92879 1 2.27105 1 2.95556 1H21.0444C21.729 1 22.0712 1 22.3327 1.13321C22.5627 1.2504 22.7496 1.43737 22.8668 1.66735C23 1.92879 23 2.27105 23 2.95556V5.07887C23 5.37782 23 5.52728 22.9663 5.66795C22.9363 5.79266 22.8869 5.91188 22.8198 6.02123C22.7443 6.14458 22.6386 6.25028 22.4273 6.46166L15.0172 13.8717C14.8059 14.083 14.7001 14.1888 14.6246 14.3121C14.5575 14.4215 14.5081 14.5406 14.4782 14.6654C14.4444 14.8061 14.4444 14.9556 14.4444 15.2544V18.1111L9.55556 23V15.2544C9.55556 14.9556 9.55556 14.8061 9.52179 14.6654C9.49184 14.5406 9.44246 14.4215 9.37545 14.3121C9.29987 14.1888 9.19417 14.083 8.98279 13.8717L1.57277 6.46166C1.36139 6.25028 1.25569 6.14458 1.18011 6.02123C1.11309 5.91188 1.06371 5.79266 1.03377 5.66795C1 5.52728 1 5.37782 1 5.07887V2.95556Z" stroke="black" stroke-width="2" stroke-linecap="round" stroke-linejoin="round"/>
</svg>
