<svg width="13" height="15" viewBox="0 0 13 15" fill="none" xmlns="http://www.w3.org/2000/svg">
<path d="M10.0863 0H5.10246H4.71627L4.44337 0.272871L0.670515 4.04596L0.397644 4.31883V4.70484V12.4836C0.397644 13.8711 1.52639 15 2.91413 15H10.0863C11.4736 15 12.6024 13.8711 12.6024 12.4836V2.51648C12.6024 1.12875 11.4736 0 10.0863 0ZM11.6708 12.4835C11.6708 13.3588 10.9614 14.0682 10.0863 14.0682H2.91413C2.03862 14.0682 1.32923 13.3588 1.32923 12.4835V4.70482H3.78184C4.5109 4.70482 5.10246 4.11366 5.10246 3.3844V0.931758H10.0863C10.9614 0.931758 11.6708 1.64115 11.6708 2.51648V12.4835Z" fill="black"/>
<path d="M4.03752 7.40576H3.20171C3.04257 7.40576 2.94724 7.50927 2.94724 7.66431V9.82507C2.94724 10.0122 3.0704 10.1356 3.24141 10.1356C3.40872 10.1356 3.53185 10.0122 3.53185 9.82507V9.16864C3.53185 9.15268 3.54003 9.14471 3.556 9.14471H4.03752C4.62624 9.14471 4.98053 8.78652 4.98053 8.27717C4.98056 7.75984 4.63034 7.40576 4.03752 7.40576ZM4.00154 8.63925H3.556C3.54003 8.63925 3.53185 8.63128 3.53185 8.61552V7.93495C3.53185 7.91898 3.54003 7.91105 3.556 7.91105H4.00154C4.24822 7.91105 4.3955 8.05832 4.3955 8.2772C4.39553 8.49604 4.24822 8.63925 4.00154 8.63925Z" fill="black"/>
<path d="M6.32983 7.40576H5.68917C5.53002 7.40576 5.43469 7.50927 5.43469 7.66431V9.85697C5.43469 10.0122 5.53 10.1117 5.68917 10.1117H6.32983C6.90668 10.1117 7.26507 9.92857 7.40825 9.48692C7.45981 9.33165 7.48802 9.14471 7.48802 8.75869C7.48802 8.3727 7.45978 8.18573 7.40825 8.03049C7.26504 7.58884 6.90668 7.40576 6.32983 7.40576ZM6.84736 9.28401C6.77945 9.49879 6.58471 9.59043 6.31386 9.59043H6.04345C6.02749 9.59043 6.01931 9.58246 6.01931 9.56652V7.95092C6.01931 7.93495 6.02749 7.92698 6.04345 7.92698H6.31386C6.58471 7.92698 6.77945 8.01862 6.84736 8.23343C6.87519 8.32507 6.89482 8.48421 6.89482 8.75872C6.89482 9.03323 6.87516 9.19237 6.84736 9.28401Z" fill="black"/>
<path d="M9.58107 7.40576H8.26822C8.10908 7.40576 8.01334 7.50927 8.01334 7.66431V9.82507C8.01334 10.0122 8.13691 10.1356 8.30792 10.1356C8.47482 10.1356 8.59837 10.0122 8.59837 9.82507V9.05307C8.59837 9.0373 8.60613 9.02934 8.6221 9.02934H9.38633C9.55734 9.02934 9.65674 8.92586 9.65674 8.77855C9.65674 8.63125 9.55734 8.52798 9.38633 8.52798H8.6221C8.60613 8.52798 8.59837 8.52001 8.59837 8.50404V7.93495C8.59837 7.91898 8.60613 7.91105 8.6221 7.91105H9.58107C9.74431 7.91105 9.85192 7.80364 9.85192 7.66047C9.85189 7.51313 9.74428 7.40576 9.58107 7.40576Z" fill="black"/>
</svg>
